<?xml version="1.0" encoding="UTF-8" standalone="no"?><!DOCTYPE svg PUBLIC "-//W3C//DTD SVG 1.1//EN" "http://www.w3.org/Graphics/SVG/1.1/DTD/svg11.dtd"><svg width="100%" height="100%" viewBox="0 0 500 500" version="1.1" xmlns="http://www.w3.org/2000/svg" xmlns:xlink="http://www.w3.org/1999/xlink" xml:space="preserve" xmlns:serif="http://www.serif.com/" style="fill-rule:evenodd;clip-rule:evenodd;stroke-linejoin:round;stroke-miterlimit:2;"><g id="BACKGROUND"></g><g id="OBJECTS"><text x="139.312px" y="378.336px" style="font-family:'BebasNeueBold', 'Bebas Neue', sans-serif;font-weight:700;font-size:20px;fill:#511f12;">sorr<tspan x="170.592px 176.912px 180.632px " y="378.336px 378.336px 378.336px ">y, </tspan>this p<tspan x="221.052px 229.172px " y="378.336px 378.336px ">ag</tspan>e is ea<tspan x="276.552px 283.672px " y="378.336px 378.336px ">ti</tspan>ng a donut</text><g><path d="M410.317,245.95c0.088,2.059 -0.931,4.374 -1.136,6.222c-0.13,1.171 -0.027,2.445 -0.676,3.429c-1.323,2.006 -4.35,1.54 -6.387,1.777c-1.593,0.185 -3.24,0.366 -4.772,-0.107c-0.908,-0.28 -1.731,-0.779 -2.543,-1.272c-0.657,-0.399 -1.323,-0.805 -1.846,-1.369c-0.694,-0.749 -1.085,-1.721 -1.638,-2.579c-0.411,-0.638 -0.914,-1.214 -1.323,-1.854c-0.958,-1.495 -1.376,-3.328 -1.161,-5.091c0.124,-1.021 0.47,-2.043 1.152,-2.813c0.58,-0.656 1.368,-1.094 2.181,-1.417c1.115,-0.443 2.307,-0.692 3.507,-0.715c2.176,-0.041 4.288,0.652 6.401,1.176c1.022,0.253 2.053,0.468 3.089,0.653c0.843,0.151 1.696,0.283 2.5,0.578c0.58,0.213 1.53,0.581 1.907,1.101c0.501,0.689 0.71,1.465 0.745,2.281Z" style="fill:#edd59f;fill-rule:nonzero;"/><path d="M389.594,241.013c-0.61,1.613 -3.106,4.957 -2.509,6.574c1.546,4.188 3.901,5.858 7.908,7.821c1.858,0.91 3.983,1.493 5.997,1.021c2.014,-0.472 3.818,-2.241 3.795,-4.31c-0.011,-0.934 -0.374,-1.87 -0.171,-2.782c0.377,-1.689 2.211,-2.187 4.076,-2.15c1.434,0.028 2.483,-1.383 1.954,-2.717c-0.602,-1.52 -1.953,-2.945 -3.225,-4.066c-4.906,-4.318 -14.322,-8.656 -17.825,0.609Z" style="fill:#511f12;fill-rule:nonzero;"/></g><g><text x="69.418px" y="327.684px" style="font-family:'BebasNeueBold', 'Bebas Neue', sans-serif;font-weight:700;font-size:278.25px;fill:#c61a69;">4</text><text x="320.396px" y="331.057px" style="font-family:'BebasNeueBold', 'Bebas Neue', sans-serif;font-weight:700;font-size:278.25px;fill:#c61a69;">4</text></g><g><path d="M311.139,315.481c-4.291,-2.751 -6.1,-8.287 -3.898,-12.884c1.436,-2.998 4.111,-4.893 7.053,-5.484c0.943,-0.189 1.176,-1.425 0.367,-1.944c-4.291,-2.751 -6.1,-8.287 -3.898,-12.884c1.436,-2.998 4.11,-4.893 7.053,-5.484c0.943,-0.189 1.176,-1.425 0.367,-1.944l-0.828,-0.531c-4.343,-2.785 -6.143,-8.416 -3.842,-13.035c2.253,-4.523 7.358,-6.483 11.858,-5.129c0.697,0.21 1.384,-0.344 1.351,-1.071c-0.102,-2.226 0.533,-4.506 1.991,-6.447c3.178,-4.233 9.215,-5.08 13.67,-2.223l1.118,0.717c0.7,0.449 1.651,-0.036 1.649,-0.867c-0.004,-2.315 0.789,-4.66 2.481,-6.596c3.295,-3.77 8.973,-4.329 13.188,-1.627l8.562,5.49c0.644,0.413 1.51,0.038 1.641,-0.715c7.334,-42.277 -10.884,-86.785 -49.769,-110.913c-49.674,-30.823 -115.566,-16.393 -147.813,32.369c-33.488,50.64 -18.988,118.714 31.949,151.376c34.296,21.992 76.272,22.242 109.827,4.331c0.719,-0.384 0.753,-1.407 0.066,-1.847l-4.143,-2.658Zm-67.352,-59.713c-17.396,-11.154 -22.473,-34.381 -11.319,-51.777c11.154,-17.395 34.381,-22.473 51.777,-11.319c17.396,11.154 22.473,34.381 11.319,51.777c-11.154,17.395 -34.381,22.473 -51.777,11.319Z" style="fill:#302b44;fill-opacity:0.2;fill-rule:nonzero;"/><path d="M349.04,208.851c-3.333,0.5 -30.333,11.333 -32.5,13.667c-2.167,2.333 -16.667,25.167 -16.667,25.833c0,0.667 0.333,13.5 0.5,14.333c0.05,0.252 1.262,0.977 3.005,1.906c0.166,-0.72 0.407,-1.431 0.749,-2.119c2.248,-4.514 7.337,-6.476 11.831,-5.138c0.694,0.207 1.411,-0.339 1.378,-1.063c-0.102,-2.225 0.533,-4.506 1.99,-6.447c3.178,-4.233 9.216,-5.08 13.672,-2.222l0.931,0.597c0.908,0.582 1.834,0.064 1.836,-0.788c0.005,-2.302 0.799,-4.63 2.481,-6.555c3.126,-3.576 9.188,-4.192 13.186,-1.628l0.176,0.113c4.706,3.018 10.888,-0.086 11.308,-5.636c0.531,-7.014 0.375,-14.038 -0.441,-20.972c-5.635,-2.086 -11.75,-4.134 -13.435,-3.881Z" style="fill:#edd59f;fill-rule:nonzero;"/><g><path d="M303.139,305.481c-4.291,-2.751 -6.1,-8.287 -3.898,-12.884c1.436,-2.998 4.111,-4.893 7.053,-5.484c0.943,-0.19 1.176,-1.425 0.367,-1.944c-4.291,-2.751 -6.1,-8.287 -3.898,-12.884c1.436,-2.998 4.111,-4.893 7.053,-5.484c0.943,-0.19 1.176,-1.425 0.367,-1.944l-0.828,-0.531c-4.343,-2.785 -6.142,-8.416 -3.842,-13.035c2.253,-4.523 7.358,-6.483 11.858,-5.129c0.697,0.21 1.384,-0.344 1.351,-1.071c-0.102,-2.226 0.533,-4.506 1.991,-6.447c3.178,-4.233 9.215,-5.08 13.67,-2.223l1.118,0.717c0.7,0.449 1.651,-0.036 1.649,-0.867c-0.004,-2.315 0.789,-4.66 2.481,-6.596c3.295,-3.77 8.973,-4.329 13.188,-1.627l8.562,5.49c0.644,0.413 1.51,0.038 1.641,-0.715c7.334,-42.277 -10.884,-86.785 -49.769,-110.913c-49.674,-30.823 -115.566,-16.393 -147.813,32.369c-33.488,50.639 -18.988,118.714 31.949,151.375c34.297,21.992 76.272,22.243 109.827,4.332c0.719,-0.384 0.753,-1.407 0.066,-1.847l-4.143,-2.658Zm-67.352,-59.714c-17.395,-11.154 -22.473,-34.381 -11.319,-51.777c11.154,-17.395 34.381,-22.473 51.777,-11.319c17.396,11.154 22.473,34.381 11.319,51.777c-11.155,17.396 -34.382,22.473 -51.777,11.319Z" style="fill:#edd59f;fill-rule:nonzero;"/><path d="M303.139,305.481c-4.291,-2.751 -6.1,-8.287 -3.898,-12.884c1.436,-2.998 4.111,-4.893 7.053,-5.484c0.943,-0.19 1.176,-1.425 0.367,-1.944c-4.291,-2.751 -6.1,-8.287 -3.898,-12.884c1.436,-2.998 4.111,-4.893 7.053,-5.484c0.943,-0.19 1.176,-1.425 0.367,-1.944l-0.828,-0.531c-4.343,-2.785 -6.142,-8.416 -3.842,-13.035c2.253,-4.523 7.358,-6.483 11.858,-5.129c0.697,0.21 1.384,-0.344 1.351,-1.071c-0.102,-2.226 0.533,-4.506 1.991,-6.447c3.178,-4.233 9.215,-5.08 13.67,-2.223l1.118,0.717c0.7,0.449 1.651,-0.036 1.649,-0.867c-0.004,-2.315 0.789,-4.66 2.481,-6.596c3.295,-3.77 8.973,-4.329 13.188,-1.627l8.562,5.49c0.644,0.413 1.51,0.038 1.641,-0.715c7.334,-42.277 -10.884,-86.785 -49.769,-110.913c-49.674,-30.823 -115.566,-16.393 -147.813,32.369c-33.488,50.639 -18.988,118.714 31.949,151.375c34.297,21.992 76.272,22.243 109.827,4.332c0.719,-0.384 0.753,-1.407 0.066,-1.847l-4.143,-2.658Zm-67.352,-59.714c-17.395,-11.154 -22.473,-34.381 -11.319,-51.777c11.154,-17.395 34.381,-22.473 51.777,-11.319c17.396,11.154 22.473,34.381 11.319,51.777c-11.155,17.396 -34.382,22.473 -51.777,11.319Z" style="fill:#511f12;fill-rule:nonzero;"/><path d="M239.742,261.638c3.972,0.464 8.433,0.966 13.701,2.69c12.197,3.993 27.606,14.741 35.187,-2.44c2.698,-6.114 3.416,-13.173 7.391,-18.555c5.981,-8.091 24.411,-12.415 21.976,-24.992c-0.934,-4.823 -4.166,-8.816 -7.028,-12.809c-7.941,-11.08 -10.884,-31.41 -27.122,-32.618c-5.993,-0.446 -12.307,0.552 -17.814,-1.854c-4.849,-2.119 -8.374,-6.619 -13.273,-8.618c-11.63,-4.744 -19.486,8.902 -29.78,11.903c-9.055,2.64 -20.82,0.648 -20.48,13.803c0.103,3.963 0.877,7.949 0.256,11.865c-0.748,4.719 -3.441,8.869 -5.152,13.329c-5.458,14.226 13.625,22.667 20.194,34.074c7.14,12.397 13.413,13.224 21.944,14.222Zm-15.274,-67.648c11.154,-17.395 34.381,-22.473 51.777,-11.319c17.396,11.154 22.473,34.381 11.319,51.777c-11.154,17.395 -34.381,22.473 -51.777,11.319c-17.396,-11.154 -22.473,-34.381 -11.319,-51.777Z" style="fill:#e5a55a;fill-rule:nonzero;"/><path d="M239.742,261.644c1.172,0.066 2.346,0.102 3.51,0.136c-6.092,-4.498 -14.019,-6.398 -19.278,-11.847c-5.233,-5.423 -8.506,-9.56 -12.158,-15.659c-3.035,-5.069 -7.852,-8.457 -9.661,-14.368c-1.317,-4.307 1.373,-8.312 3.262,-11.97c0.913,-1.768 2.015,-3.704 2.228,-5.724c0.311,-2.953 -1.546,-5.3 -0.605,-8.302c0.436,-1.393 1.118,-2.703 1.486,-4.115c0.515,-1.973 0.422,-4.147 1.443,-5.913c1.567,-2.709 5.677,-4.189 8.384,-5.493c3.933,-1.894 8.008,-3.47 12.097,-4.99c8.162,-3.032 16.497,-5.809 24.022,-10.272c-5.054,-3.111 -11.728,-1.062 -16.729,2.134c-5,3.196 -9.443,7.514 -15.115,9.257c-5.424,1.667 -11.782,0.922 -16.274,4.39c-7.688,5.935 -1.721,16.742 -4.417,24.53c-1.59,4.594 -4.796,8.653 -5.202,13.627c-0.411,5.029 2.288,9.829 5.653,13.589c3.365,3.76 7.452,6.829 10.745,10.652c5.254,6.1 8.68,14.255 15.847,17.923c3.303,1.692 7.024,2.204 10.762,2.415Z" style="fill:#c67626;fill-rule:nonzero;"/></g><path d="M346.854,154.67c-8.402,-12.842 -19.667,-24.115 -33.603,-32.762c-49.674,-30.823 -115.566,-16.393 -147.813,32.369c-24.439,36.955 -23.314,83.192 -1.128,118.179c3.141,1.626 7.193,-25.822 7.452,-27.88c1.242,-9.875 2.141,-20.062 0.37,-29.933c-1.561,-8.707 -9.72,-19.382 -5.443,-28.272c1.885,-3.918 5.825,-6.467 8.071,-10.189c4.226,-7 1.807,-16.879 6.932,-23.25c3.608,-4.485 9.771,-5.742 14.985,-8.178c20.002,-9.348 35.338,-36.305 60.931,-25.318c11.288,4.846 16.871,16.783 27.106,22.509c11.877,6.645 21.775,-3.576 33.859,-1.479c6.296,1.093 11.134,5.941 16.329,9.663c3.47,2.482 7.835,4.499 11.952,4.541Z" style="fill:#3a1509;fill-rule:nonzero;"/><path d="M260.578,132.055l-9.075,-10.66c-1.07,-1.256 -2.973,-1.409 -4.229,-0.34c-1.256,1.07 -1.409,2.973 -0.339,4.229l9.075,10.66c1.07,1.256 2.973,1.409 4.229,0.34c1.256,-1.069 1.409,-2.972 0.339,-4.229Z" style="fill:#86d0e2;fill-rule:nonzero;"/><path d="M214.578,155.055l-9.075,-10.66c-1.07,-1.256 -2.973,-1.409 -4.229,-0.34c-1.256,1.07 -1.409,2.973 -0.339,4.229l9.075,10.66c1.07,1.256 2.973,1.409 4.229,0.34c1.256,-1.069 1.409,-2.972 0.339,-4.229Z" style="fill:#86d0e2;fill-rule:nonzero;"/><path d="M273.578,300.055l-9.075,-10.66c-1.07,-1.256 -2.973,-1.409 -4.229,-0.34c-1.256,1.07 -1.409,2.973 -0.34,4.229l9.075,10.66c1.07,1.256 2.973,1.409 4.229,0.34c1.257,-1.069 1.41,-2.972 0.34,-4.229Z" style="fill:#86d0e2;fill-rule:nonzero;"/><path d="M221.605,142.44l13.699,-2.885c1.615,-0.34 2.658,-1.939 2.318,-3.554c-0.34,-1.615 -1.939,-2.657 -3.554,-2.317l-13.7,2.885c-1.615,0.34 -2.657,1.939 -2.317,3.554c0.34,1.614 1.939,2.657 3.554,2.317Z" style="fill:#ffc543;fill-rule:nonzero;"/><path d="M329.604,274.44l13.699,-2.885c1.615,-0.34 2.658,-1.939 2.318,-3.554c-0.34,-1.615 -1.939,-2.657 -3.554,-2.317l-13.7,2.885c-1.615,0.34 -2.657,1.939 -2.317,3.554c0.341,1.614 1.94,2.657 3.554,2.317Z" style="fill:#ffc543;fill-rule:nonzero;"/><path d="M171.605,201.44l13.699,-2.885c1.615,-0.34 2.658,-1.939 2.318,-3.554c-0.34,-1.615 -1.939,-2.657 -3.554,-2.317l-13.7,2.885c-1.615,0.34 -2.657,1.939 -2.317,3.554c0.34,1.614 1.939,2.657 3.554,2.317Z" style="fill:#ffc543;fill-rule:nonzero;"/><path d="M291.031,159.861l10.556,-9.197c1.244,-1.084 1.375,-2.989 0.291,-4.233c-1.084,-1.244 -2.988,-1.375 -4.233,-0.291l-10.556,9.197c-1.244,1.084 -1.375,2.989 -0.291,4.233c1.084,1.243 2.989,1.375 4.233,0.291Z" style="fill:#c61a69;fill-rule:nonzero;"/><path d="M253.031,147.861l10.556,-9.197c1.244,-1.084 1.375,-2.989 0.291,-4.233c-1.084,-1.244 -2.988,-1.375 -4.233,-0.291l-10.556,9.197c-1.244,1.084 -1.375,2.989 -0.291,4.233c1.084,1.243 2.989,1.375 4.233,0.291Z" style="fill:#c61a69;fill-rule:nonzero;"/><path d="M256.031,306.861l10.556,-9.197c1.244,-1.084 1.375,-2.989 0.291,-4.233c-1.084,-1.244 -2.988,-1.375 -4.233,-0.291l-10.556,9.197c-1.244,1.084 -1.375,2.989 -0.291,4.233c1.084,1.243 2.989,1.375 4.233,0.291Z" style="fill:#c61a69;fill-rule:nonzero;"/><path d="M193.031,284.861l10.556,-9.197c1.244,-1.084 1.375,-2.989 0.291,-4.233c-1.084,-1.244 -2.989,-1.375 -4.233,-0.291l-10.556,9.197c-1.244,1.084 -1.375,2.989 -0.291,4.233c1.084,1.243 2.989,1.375 4.233,0.291Z" style="fill:#d76eed;fill-rule:nonzero;"/><path d="M215.744,282.578l13.249,4.523c1.562,0.533 3.275,-0.308 3.808,-1.87c0.533,-1.562 -0.308,-3.275 -1.87,-3.808l-13.249,-4.523c-1.562,-0.533 -3.275,0.308 -3.808,1.87c-0.533,1.561 0.309,3.275 1.87,3.808Z" style="fill:#ffc543;fill-rule:nonzero;"/><path d="M281.09,262.337l-4.625,13.214c-0.545,1.557 0.283,3.277 1.841,3.823c1.557,0.545 3.277,-0.283 3.823,-1.841l4.625,-13.214c0.545,-1.557 -0.283,-3.277 -1.841,-3.823c-1.558,-0.545 -3.278,0.283 -3.823,1.841Z" style="fill:#ffc543;fill-rule:nonzero;"/><path d="M171.544,237.918l12.386,-6.526c1.46,-0.769 2.025,-2.593 1.256,-4.053c-0.769,-1.46 -2.593,-2.025 -4.053,-1.256l-12.386,6.526c-1.46,0.769 -2.025,2.593 -1.256,4.053c0.769,1.46 2.593,2.025 4.053,1.256Z" style="fill:#d76eed;fill-rule:nonzero;"/><path d="M300.796,332.942l11.977,7.25c1.411,0.854 3.266,0.399 4.12,-1.013c0.855,-1.412 0.399,-3.266 -1.013,-4.12l-11.977,-7.25c-1.411,-0.855 -3.266,-0.399 -4.12,1.013c-0.854,1.412 -0.398,3.266 1.013,4.12Z" style="fill:#c61a69;fill-rule:nonzero;"/><path d="M185.083,153.371l-11.447,8.06c-1.349,0.95 -1.676,2.831 -0.726,4.18c0.95,1.349 2.831,1.676 4.18,0.726l11.447,-8.06c1.349,-0.95 1.676,-2.831 0.726,-4.18c-0.95,-1.349 -2.831,-1.676 -4.18,-0.726Z" style="fill:#d76eed;fill-rule:nonzero;"/><path d="M308.704,173.863l12.386,-6.526c1.46,-0.769 2.025,-2.593 1.256,-4.052c-0.769,-1.46 -2.593,-2.025 -4.053,-1.256l-12.386,6.526c-1.46,0.769 -2.025,2.593 -1.256,4.053c0.769,1.459 2.593,2.024 4.053,1.255Z" style="fill:#d76eed;fill-rule:nonzero;"/><path d="M334.09,212.337l12.386,-6.526c1.46,-0.769 2.025,-2.593 1.256,-4.053c-0.769,-1.46 -2.593,-2.025 -4.053,-1.256l-12.386,6.526c-1.46,0.769 -2.025,2.593 -1.256,4.053c0.769,1.46 2.593,2.025 4.053,1.256Z" style="fill:#d76eed;fill-rule:nonzero;"/><path d="M350.09,334.337l12.386,-6.526c1.46,-0.769 2.025,-2.593 1.256,-4.053c-0.769,-1.46 -2.593,-2.025 -4.053,-1.256l-12.386,6.526c-1.46,0.769 -2.025,2.593 -1.256,4.053c0.769,1.46 2.593,2.025 4.053,1.256Z" style="fill:#d76eed;fill-rule:nonzero;"/><path d="M187.683,194.255l-2.813,-13.715c-0.331,-1.616 -1.925,-2.667 -3.542,-2.336c-1.616,0.332 -2.668,1.925 -2.336,3.542l2.813,13.714c0.331,1.616 1.925,2.668 3.542,2.336c1.617,-0.331 2.668,-1.925 2.336,-3.541Z" style="fill:#c61a69;fill-rule:nonzero;"/><path d="M325.683,192.255l-2.813,-13.715c-0.332,-1.616 -1.925,-2.667 -3.542,-2.336c-1.616,0.332 -2.668,1.925 -2.336,3.542l2.813,13.714c0.332,1.616 1.925,2.668 3.542,2.336c1.617,-0.331 2.668,-1.925 2.336,-3.541Z" style="fill:#86d0e2;fill-rule:nonzero;"/><path d="M320.683,150.255l-2.813,-13.715c-0.332,-1.616 -1.925,-2.667 -3.542,-2.336c-1.616,0.332 -2.668,1.925 -2.336,3.542l2.813,13.714c0.332,1.616 1.925,2.668 3.542,2.336c1.617,-0.331 2.668,-1.925 2.336,-3.541Z" style="fill:#d76eed;fill-rule:nonzero;"/><path d="M227.683,304.255l-2.813,-13.714c-0.331,-1.616 -1.925,-2.668 -3.542,-2.336c-1.616,0.332 -2.668,1.925 -2.336,3.542l2.813,13.714c0.331,1.616 1.925,2.668 3.542,2.336c1.617,-0.332 2.668,-1.926 2.336,-3.542Z" style="fill:#d76eed;fill-rule:nonzero;"/><path d="M193.683,258.255l-2.813,-13.714c-0.331,-1.616 -1.925,-2.667 -3.542,-2.336c-1.616,0.332 -2.668,1.925 -2.336,3.542l2.813,13.714c0.331,1.616 1.925,2.668 3.542,2.336c1.617,-0.332 2.668,-1.926 2.336,-3.542Z" style="fill:#86d0e2;fill-rule:nonzero;"/><g><path d="M353.397,296.374c-0.756,-0.665 -1.228,-1.806 -1.811,-2.503c-0.369,-0.441 -0.853,-0.836 -0.981,-1.397c-0.261,-1.145 0.927,-2.055 1.531,-2.853c0.473,-0.624 0.966,-1.267 1.651,-1.647c0.406,-0.226 0.859,-0.347 1.308,-0.467c0.363,-0.097 0.731,-0.195 1.107,-0.188c0.499,0.008 0.974,0.199 1.463,0.294c0.364,0.07 0.737,0.088 1.101,0.16c0.851,0.167 1.639,0.639 2.188,1.311c0.318,0.389 0.561,0.856 0.603,1.357c0.035,0.426 -0.076,0.852 -0.237,1.248c-0.22,0.543 -0.536,1.048 -0.933,1.478c-0.721,0.782 -1.679,1.292 -2.578,1.861c-0.435,0.275 -0.859,0.566 -1.274,0.869c-0.338,0.247 -0.673,0.503 -1.049,0.686c-0.271,0.133 -0.722,0.343 -1.033,0.301c-0.412,-0.058 -0.756,-0.246 -1.056,-0.51Z" style="fill:#edd59f;fill-rule:nonzero;"/><path d="M362.141,290.733c-0.363,-0.76 -0.699,-2.771 -1.471,-3.106c-2,-0.87 -3.384,-0.604 -5.431,0.147c-0.949,0.348 -1.872,0.9 -2.387,1.77c-0.515,0.87 -0.5,2.104 0.238,2.795c0.333,0.312 0.786,0.5 1.039,0.88c0.468,0.704 0.024,1.519 -0.619,2.164c-0.494,0.496 -0.351,1.343 0.298,1.608c0.74,0.301 1.699,0.306 2.524,0.236c3.181,-0.272 7.893,-2.128 5.809,-6.494Z" style="fill:#511f12;fill-rule:nonzero;"/></g><g><path d="M337.763,290.069c-0.51,-0.448 -0.824,-1.223 -1.216,-1.694c-0.248,-0.298 -0.575,-0.564 -0.658,-0.945c-0.169,-0.779 0.646,-1.408 1.064,-1.956c0.327,-0.429 0.667,-0.871 1.136,-1.135c0.278,-0.157 0.588,-0.243 0.895,-0.328c0.248,-0.069 0.499,-0.138 0.755,-0.136c0.34,0.002 0.662,0.129 0.995,0.19c0.248,0.046 0.502,0.055 0.749,0.101c0.579,0.108 1.112,0.424 1.481,0.878c0.214,0.263 0.376,0.58 0.401,0.921c0.021,0.29 -0.058,0.582 -0.171,0.853c-0.154,0.372 -0.372,0.718 -0.646,1.015c-0.497,0.538 -1.153,0.893 -1.77,1.287c-0.298,0.191 -0.589,0.392 -0.874,0.602c-0.232,0.171 -0.462,0.348 -0.719,0.476c-0.186,0.092 -0.494,0.239 -0.706,0.212c-0.281,-0.038 -0.514,-0.164 -0.716,-0.341Z" style="fill:#edd59f;fill-rule:nonzero;"/></g><g><path d="M327.289,333.96c0.325,-0.596 1.012,-1.072 1.386,-1.557c0.237,-0.308 0.424,-0.685 0.778,-0.849c0.723,-0.336 1.515,0.322 2.142,0.609c0.49,0.225 0.996,0.46 1.357,0.86c0.214,0.237 0.366,0.52 0.516,0.801c0.121,0.227 0.244,0.457 0.299,0.707c0.072,0.332 0.02,0.674 0.033,1.012c0.01,0.251 0.056,0.501 0.066,0.753c0.021,0.588 -0.17,1.178 -0.532,1.638c-0.21,0.267 -0.483,0.494 -0.811,0.593c-0.279,0.084 -0.58,0.071 -0.869,0.02c-0.397,-0.069 -0.783,-0.206 -1.132,-0.408c-0.634,-0.367 -1.124,-0.929 -1.644,-1.444c-0.251,-0.249 -0.512,-0.489 -0.779,-0.721c-0.217,-0.189 -0.44,-0.375 -0.622,-0.598c-0.131,-0.161 -0.342,-0.43 -0.362,-0.642c-0.027,-0.283 0.045,-0.538 0.174,-0.774Z" style="fill:#e279a1;fill-rule:nonzero;"/></g><g><path d="M331.963,315.977c-0.51,-0.448 -0.824,-1.223 -1.216,-1.694c-0.248,-0.298 -0.575,-0.564 -0.658,-0.945c-0.169,-0.779 0.646,-1.408 1.064,-1.957c0.327,-0.429 0.667,-0.871 1.136,-1.135c0.278,-0.157 0.588,-0.243 0.895,-0.328c0.248,-0.069 0.499,-0.138 0.755,-0.136c0.34,0.002 0.662,0.129 0.995,0.19c0.248,0.046 0.501,0.055 0.749,0.101c0.578,0.108 1.112,0.424 1.481,0.878c0.214,0.263 0.376,0.58 0.401,0.921c0.021,0.29 -0.058,0.582 -0.171,0.853c-0.154,0.372 -0.372,0.718 -0.646,1.015c-0.497,0.538 -1.153,0.893 -1.77,1.287c-0.298,0.19 -0.589,0.392 -0.874,0.602c-0.232,0.171 -0.462,0.348 -0.719,0.476c-0.186,0.092 -0.494,0.239 -0.706,0.212c-0.28,-0.036 -0.513,-0.162 -0.716,-0.34Z" style="fill:#edd59f;fill-rule:nonzero;"/></g></g></g><g id="DESIGNED_BY_FREEPIK"></g></svg>